PathFileType	4	(X/Y/Z)	C:\Users\chris\Documents\GitHub\baseballds\vids\pitch5_Sports2D\pitch5_Sports2D_m_person06.trc
DataRate	CameraRate	NumFrames	NumMarkers	Units	OrigDataRate	OrigDataStartFrame	OrigNumFrames
30	30	10	22	m	30	37	149
Frame#	Time	Hip			RHip			RKnee			RAnkle			RBigToe			RSmallToe			RHeel			LHip			LKnee			LAnkle			LBigToe			LSmallToe			LHeel			Neck			Head			Nose			RShoulder			RElbow			RWrist			LShoulder			LElbow			LWrist		
		X1	Y1	Z1	X2	Y2	Z2	X3	Y3	Z3	X4	Y4	Z4	X5	Y5	Z5	X6	Y6	Z6	X7	Y7	Z7	X8	Y8	Z8	X9	Y9	Z9	X10	Y10	Z10	X11	Y11	Z11	X12	Y12	Z12	X13	Y13	Z13	X14	Y14	Z14	X15	Y15	Z15	X16	Y16	Z16	X17	Y17	Z17	X18	Y18	Z18	X19	Y19	Z19	X20	Y20	Z20	X21	Y21	Z21	X22	Y22	Z22
37	1.2333333333333334	1.7611624648848265	1.0274374815726823	0.0	1.8081293525386082	1.0289718134907022	0.0	1.8603027429113594	0.9128301693132068	0.0	1.9130713404612025	0.7603977600048828	0.0	1.92518159793701	0.7887341952653992	0.0	1.9613752970892486	0.7653098494330314	0.0	1.9040475108261228	0.7404511742752391	0.0	1.7125846917589458	1.0204472949927923	0.0	1.6816658870177144	0.8588779714923321	0.0	1.6897212846892562	0.7308916575553761	0.0	1.7475915846668442	0.006144230216371831	0.0	1.8255425825475815	0.007291860870890524	0.0	1.872938093938502	0.08365955946811886	0.0	1.7189088675708757	1.287262964653291	0.0	1.744118120633097	1.374794119975426	0.0	1.7941116184357677	1.3267947066116	0.0	1.7906869035986475	1.265707365671499	0.0	1.8653324413529364	1.205183209015752	0.0	1.9545843453302492	1.1456779285465215	0.0	1.6563986007814897	1.2385377074022148	0.0	1.8156476017767404	1.1937565754036386	0.0	1.914829202038377	1.1594463153876635	0.0
38	1.2666666666666666	1.7676811815347797	1.0289050461924443	0.0	1.8195823541409044	1.0316092806404884	0.0	1.873222689035715	0.9254732672384873	0.0	1.927731774520624	0.7800795182204014	0.0	1.940174157955919	0.8135458343707215	0.0	1.9795256475633243	0.7892838831952427	0.0	1.9174775331758427	0.7609271366653323	0.0	1.7140368848323078	1.0224991399948253	0.0	1.6800206072184452	0.8693688440491459	0.0	1.6850979501274992	0.7485579339323221	0.0	1.7471091449761185	0.008434010630825845	0.0	1.8247018285535694	0.00960541791256966	0.0	1.874095056577159	0.08521148935569274	0.0	1.724978074652799	1.2778225338289353	0.0	1.7497550687880692	1.3591139443675782	0.0	1.7979757514598194	1.3147921187810185	0.0	1.8054552099304177	1.259298441106195	0.0	1.8839367631858919	1.20676188950131	0.0	1.9698436609950352	1.144418745160075	0.0	1.6542774753202591	1.2304599203172304	0.0	1.815063581642873	1.193461606080321	0.0	1.9203006279373607	1.1596244476584745	0.0
39	1.3	1.763303365340096	1.0285401300921777	0.0	1.81184436781646	1.0307971729046912	0.0	1.86447263212092	0.9174438947441517	0.0	1.917795120859519	0.7665260105532654	0.0	1.9297433031148143	0.7960560796118048	0.0	1.9669858731378074	0.7726102640268133	0.0	1.9090002035956528	0.7470185116924429	0.0	1.7131689658643536	1.0218786523611039	0.0	1.6812339881064966	0.8624013665269481	0.0	1.688202319883666	0.7362523515595978	0.0	1.7474174556551227	0.006631893056021458	0.0	1.825164195933665	0.0076508805836332395	0.0	1.8735047401256124	0.08471871608547027	0.0	1.7212360284636605	1.2845008844542696	0.0	1.7454657019362387	1.3706915487514624	0.0	1.794809972847676	1.3236209912853132	0.0	1.7952812292456934	1.2638791649385699	0.0	1.8712469026548402	1.205710201907947	0.0	1.9597815439812893	1.145477484984854	0.0	1.6560968128206346	1.236140768610049	0.0	1.8156882537307597	1.1933736779843893	0.0	1.9161135907481714	1.1593926564746115	0.0
40	1.3333333333333333	1.721751850006894	1.0203568689661255	0.0	1.7387531985704892	1.0157955004051769	0.0	1.7819801115327207	0.8377252109206267	0.0	1.8241749543375478	0.6404373018240481	0.0	1.8334944056374203	0.6363417140599994	0.0	1.8506308568773988	0.6187135612763004	0.0	1.8244174727627058	0.6162037790468093	0.0	1.7041149789840464	1.01022926968868	0.0	1.6919259659266777	0.795677679877198	0.0	1.7176712736147903	0.6228113735265363	0.0	1.750463017828142	-0.008462463548266309	0.0	1.8303303360029766	-0.00785253358881405	0.0	1.866482317306963	0.07586333324499415	0.0	1.6831798607789943	1.34531451403719	0.0	1.7085841537689574	1.4726160425581118	0.0	1.7691022560174148	1.4015774418940132	0.0	1.7006623118966893	1.3052529000672286	0.0	1.752290295965729	1.1956634706367755	0.0	1.862866219270694	1.1539059032910777	0.0	1.6703623711784112	1.2881131865418367	0.0	1.8198495825697854	1.1947141091534346	0.0	1.8802704468289022	1.1580455456861078	0.0
41	1.3666666666666667	1.6443142782054596	1.0016196846375331	0.0	1.601996790510517	0.982676201804012	0.0	1.6285197085294507	0.6839077168803486	0.0	1.6506603163649929	0.4022817979985698	0.0	1.6568876791966245	0.3359657263809736	0.0	1.6354047308858592	0.3285445171356403	0.0	1.6655487522669885	0.36824094020743803	0.0	1.6876668566402575	0.984133728789973	0.0	1.7119952932046998	0.6683581563685558	0.0	1.7733777680799014	0.40854360053460037	0.0	1.7546358592833524	-0.027744166649482083	0.0	1.8377182151017741	-0.02712779295899594	0.0	1.8562448291703295	0.061668695396166026	0.0	1.6104254778862217	1.4588494371353065	0.0	1.6410474130157933	1.66119719588994	0.0	1.7230969605685689	1.545819359788653	0.0	1.5233389182552786	1.382345147220031	0.0	1.529173502513098	1.1775746019716105	0.0	1.6804528485467098	1.1706595288709751	0.0	1.6964259583984598	1.3851598350395622	0.0	1.8246439925083346	1.1970590975170725	0.0	1.810277544956132	1.154159973938187	0.0
42	1.4	1.5955674650989835	0.9803551525078772	0.0	1.5113111001945172	0.9486942294543477	0.0	1.5321412041095284	0.5624274073778238	0.0	1.5458000951404238	0.22398005257262768	0.0	1.5560988821004562	0.11066229368701185	0.0	1.5029519843907195	0.11102890783357855	0.0	1.5692568849917188	0.18105659274253488	0.0	1.6824898923788614	0.955287012085769	0.0	1.7279604702991824	0.5702419672585682	0.0	1.8136457794406484	0.2450578532570284	0.0	1.746957297672643	0.012953483801261935	0.0	1.8252773519621195	0.0156710101398604	0.0	1.872787887094126	0.08010478254558277	0.0	1.5598282547684243	1.5390753626370706	0.0	1.5954035714302361	1.7938307519757	0.0	1.6942227952659858	1.6465924992930538	0.0	1.3995528223596003	1.4368593894582458	0.0	1.3749930712347733	1.17058134408915	0.0	1.557794775237087	1.192819507807196	0.0	1.7180449286548793	1.4531214307366394	0.0	1.8131469510281615	1.1912368721673874	0.0	1.7337911814457554	1.1401373996784814	0.0
43	1.4333333333333333	1.6481483267658743	0.9699024243444297	0.0	1.587059131398357	0.9396120698002203	0.0	1.6335002791401207	0.5899721006403963	0.0	1.6725472048635774	0.28479549864353987	0.0	1.700612854749327	0.18107140482396378	0.0	1.649930261221565	0.18248212686912138	0.0	1.69191968723743	0.2419201410874416	0.0	1.7128989086375024	0.9417037592050376	0.0	1.7277262865943994	0.5972634312758061	0.0	1.791166132467766	0.2899755910388946	0.0	1.7119460118169914	0.18811867239297256	0.0	1.7643573884923995	0.1956770991689561	0.0	1.952595591674082	0.19223665475206575	0.0	1.5975706085002042	1.4975579598072	0.0	1.6248181892610796	1.7278627538364628	0.0	1.7164278711309662	1.5936152832811403	0.0	1.4751705144308234	1.4094947869538939	0.0	1.4760678687183666	1.196741219604322	0.0	1.6550246089391105	1.2207844725357466	0.0	1.723938169500587	1.4156568391978097	0.0	1.7690770440972348	1.1649497426776552	0.0	1.6719739480217009	1.1099722327811063	0.0
44	1.4666666666666666	1.781840809580231	0.9727344875755295	0.0	1.7900586596856602	0.9558072489959467	0.0	1.882907528022097	0.7319855306105375	0.0	1.9682356576078635	0.5177606444782836	0.0	2.0208047469007666	0.46135251960092655	0.0	1.9998041922303265	0.46130182809300874	0.0	1.9788465353653673	0.48342024376674586	0.0	1.7772361265209102	0.9456514454839614	0.0	1.7209926147295458	0.7173303401705271	0.0	1.7173398237482074	0.4898244806792444	0.0	1.661272388283714	0.44570055152350824	0.0	1.670147759104397	0.4581721843702038	0.0	2.045405215228619	0.3948566153117659	0.0	1.7091311360400667	1.371156557099834	0.0	1.7104979547277954	1.5254444965410403	0.0	1.7695119663566534	1.434599845741885	0.0	1.7019980156281815	1.3257735125239536	0.0	1.7685652846156874	1.2462274333772767	0.0	1.9171092630533522	1.2507660846274926	0.0	1.7282177926123667	1.3056075706134844	0.0	1.714440911184761	1.129593729810455	0.0	1.6256389012838712	1.0865732395578962	0.0
45	1.5	1.9047105292943962	0.9778179253675305	0.0	1.964736435168608	0.9713953316304291	0.0	2.0923088610590623	0.8481208493044666	0.0	2.205115343336918	0.6951815552281417	0.0	2.2742846744640284	0.6727731487808124	0.0	2.2796961951790773	0.6731138000853987	0.0	2.210817684715292	0.6695461012582372	0.0	1.8476494319664067	0.9527806332182215	0.0	1.7297035949991995	0.8109745081223084	0.0	1.6554007503426222	0.6542610265514693	0.0	1.6308973932948452	0.6305953280617846	0.0	1.5999903943999723	0.6447840138064541	0.0	2.0155092227667026	0.5840483041002162	0.0	1.8189873772047822	1.276127807390523	0.0	1.7923081103700689	1.3748204979798861	0.0	1.8161669932855722	1.3154686502778634	0.0	1.9013980718662244	1.2634629066515533	0.0	2.0180999475249064	1.2794291016225667	0.0	2.134156280989834	1.2648848006764035	0.0	1.75526469988078	1.2250757675855748	0.0	1.697599681550822	1.1168595518904154	0.0	1.5994880812487964	1.1018982678640807	0.0
46	1.5333333333333332	1.969262400046897	0.9772114022518685	0.0	2.0383442110358896	0.9716298713712703	0.0	2.1791265270403097	0.8779758302856305	0.0	2.2843902820786726	0.7267652522784804	0.0	2.3582767542396312	0.707622132958325	0.0	2.371292402998034	0.7083711159708814	0.0	2.287178782750865	0.7049251964243426	0.0	1.9031376706417655	0.9549117074579911	0.0	1.7611308162797334	0.8281984140949321	0.0	1.643053182592305	0.7066775307173312	0.0	1.6347493910268969	0.6828113638144765	0.0	1.5802096069906197	0.6960144391627856	0.0	1.8421965605464719	0.6775579713425957	0.0	1.8945904776902416	1.2558516397023531	0.0	1.8558629370755826	1.3472082534780379	0.0	1.8692497937990433	1.2922097635538434	0.0	2.0018998535968096	1.2492058553297933	0.0	2.1291451303391	1.2674162439385739	0.0	2.2170592071170017	1.245471829819765	0.0	1.8117325472811237	1.2117882557827566	0.0	1.73089236810975	1.1352139655267106	0.0	1.6101868115835372	1.1400788709592695	0.0
